<svg width="67" height="50" viewBox="0 0 67 50" fill="none" xmlns="http://www.w3.org/2000/svg">
<circle cx="33.5" cy="25" r="25" fill="#68B738"/>
<g clip-path="url(#clip0_102363_1225)">
<path d="M61.5591 13.8785C62.1364 12.96 62.9036 12.1758 63.8091 11.5785C64.3091 11.2285 64.6091 11.2285 64.9091 11.8785C65.3091 12.8285 65.6591 13.8285 65.3591 14.8785C65.3045 15.0566 65.2942 15.2453 65.3291 15.4283C65.3639 15.6112 65.4429 15.7829 65.5591 15.9285C65.8591 16.3285 66.1091 16.7285 66.3591 17.0785C66.6994 17.5104 66.9201 18.0241 66.9991 18.5683C67.078 19.1124 67.0125 19.6677 66.8091 20.1785C66.6256 20.6744 66.5908 21.2131 66.7091 21.7285C66.809 22.2235 66.809 22.7335 66.7091 23.2285C66.6687 23.5992 66.5187 23.9494 66.2782 24.2344C66.0377 24.5194 65.7177 24.7263 65.3591 24.8285C64.7196 24.9502 64.1488 25.3069 63.7591 25.8285C63.7119 25.9053 63.6457 25.9686 63.5669 26.0124C63.488 26.0562 63.3993 26.079 63.3091 26.0785C62.7091 26.1785 61.2091 24.8285 61.2091 24.2285V23.9285C61.2591 22.1285 61.1591 21.9785 59.5091 21.2285C59.1638 21.1067 58.8544 20.9004 58.6091 20.6285C58.3091 20.2285 57.9091 20.2785 57.4591 20.4285C57.0091 20.5785 56.7591 20.8785 56.8091 21.3785C56.9599 22.5889 57.0101 23.8098 56.9591 25.0285C56.9624 25.1676 56.9966 25.3042 57.0591 25.4285C58.6091 27.6785 59.2091 30.3285 59.9591 32.8785C60.5591 34.8285 61.6591 35.8785 63.6591 36.0285C63.9792 36.054 64.2968 36.1042 64.6091 36.1785C65.02 36.2445 65.4017 36.4323 65.7048 36.7175C66.0078 37.0027 66.2183 37.3723 66.3091 37.7785C66.6591 38.8285 66.4591 39.0785 65.4091 39.0785H62.1591C61.7384 39.0998 61.3259 38.9563 61.0091 38.6785C60.5031 38.2514 59.9282 37.9133 59.3091 37.6785C58.6247 37.4258 58.0323 36.9728 57.6091 36.3785C57.0234 35.5602 56.3531 34.8061 55.6091 34.1285C54.2091 32.6785 52.7091 31.2785 51.4091 29.7785C50.4195 28.7564 49.8486 27.4006 49.8091 25.9785C49.8091 25.5285 49.7091 25.3285 49.2091 25.5285C49.0594 25.6235 48.8864 25.6754 48.7091 25.6785C47.3091 25.6785 46.6091 26.5285 46.1091 27.7785C45.6591 28.8285 45.0591 29.8285 44.5091 30.8785C44.1972 31.5358 44.0269 32.2512 44.0091 32.9785C44.0091 34.1785 44.3091 34.5785 45.4091 34.9785C46.1091 35.2285 46.7591 35.4785 47.1091 36.1785C47.5091 36.9785 47.4091 37.1785 46.5591 37.2285H43.1591C42.9631 37.2479 42.766 37.2053 42.5955 37.1066C42.425 37.0079 42.2899 36.8581 42.2091 36.6785L41.3091 35.1785C41.0438 34.7871 40.874 34.339 40.8132 33.8701C40.7524 33.4012 40.8024 32.9246 40.9591 32.4785C41.1755 31.6102 41.1926 30.7043 41.0091 29.8285C40.8831 29.2185 40.8939 28.5882 41.0409 27.983C41.1879 27.3778 41.4674 26.8127 41.8591 26.3285C42.1591 25.9785 42.1591 25.8285 41.6591 25.7285C39.6146 25.2942 37.6325 24.6055 35.7591 23.6785C35.7459 23.6785 35.7331 23.6732 35.7238 23.6638C35.7144 23.6545 35.7091 23.6417 35.7091 23.6285C34.1091 23.0285 33.8091 23.1285 33.3591 24.7785C32.9591 26.1785 32.5591 27.5785 32.2591 29.0285C31.9091 30.6285 32.3091 32.1285 32.8091 33.6285C33.0091 34.2285 33.6091 34.1785 34.0591 34.3285C35.0591 34.6285 35.9091 35.0285 36.3091 36.0785C36.6591 36.8785 36.6091 36.9785 35.7591 36.9785C34.9091 36.9785 34.0591 36.9285 33.1591 36.9785C32.3996 36.9923 31.6584 36.7452 31.0591 36.2785C28.6591 34.6785 27.9591 32.2285 27.7591 29.5785C27.6591 27.9285 26.7591 26.6285 25.7091 25.3785C25.5091 25.1285 25.3091 25.0285 25.0091 25.2285C23.9359 25.8203 22.8153 26.322 21.6591 26.7285C19.2462 27.5805 17.1289 29.1077 15.5591 31.1285C14.9729 31.866 14.5933 32.746 14.4591 33.6785C14.3091 34.5785 14.5591 34.9785 15.4591 35.2285C16.3591 35.4785 16.8091 35.9785 16.9091 36.9285C16.9591 37.3285 16.8091 37.5285 16.4091 37.5285H12.3591C12.2266 37.5191 12.0982 37.4778 11.9851 37.4082C11.8719 37.3385 11.7772 37.2426 11.7091 37.1285C11.081 36.3509 10.7449 35.378 10.7591 34.3785C10.7329 32.651 10.8837 30.9253 11.2091 29.2285C11.2759 28.7203 11.4656 28.2361 11.7618 27.8179C12.0581 27.3997 12.4519 27.06 12.9091 26.8285C15.8591 25.4285 17.4091 22.7785 18.8091 20.0285C19.1091 19.4785 18.8591 19.3785 18.3591 19.4285C16.9598 19.6227 15.634 20.1737 14.5091 21.0285C13.0362 22.1029 11.6487 23.2898 10.3591 24.5785C8.98394 25.9753 7.16046 26.8428 5.20911 27.0285C1.55911 27.2285 -0.140885 25.1785 0.00911497 21.8785C0.0426462 20.7533 0.466939 19.6749 1.20912 18.8285C1.46713 18.494 1.81898 18.244 2.21975 18.1104C2.62052 17.9768 3.05201 17.9657 3.45912 18.0785C4.20912 18.2785 4.40911 18.6785 4.10911 19.4285C3.95911 19.7285 3.75911 19.9785 3.60911 20.2785C3.39342 20.585 3.22488 20.922 3.10911 21.2785C2.55911 22.7785 3.30911 23.8285 4.85911 23.9785C6.50911 24.1285 7.85912 23.4285 9.10912 22.4285C10.6151 21.2226 11.9595 19.8278 13.1091 18.2785C13.9687 17.1472 15.0512 16.2041 16.2895 15.5076C17.5279 14.811 18.8959 14.3757 20.3091 14.2285C21.4591 14.0785 22.4591 13.5785 23.5591 13.2785C25.6164 12.6513 27.7586 12.3477 29.9091 12.3785C30.9052 12.42 31.8974 12.2318 32.8091 11.8285C35.2591 10.8285 37.8091 10.8285 40.3591 11.3285C42.3591 11.7285 44.3591 12.2285 46.3091 12.7285C47.4696 12.9447 48.6629 12.9106 49.8091 12.6285C52.0034 12.0723 54.248 11.7372 56.5091 11.6285C57.9904 11.5564 59.4667 11.8483 60.8091 12.4785C61.8091 12.9285 61.8091 12.9285 61.5591 13.8785Z" fill="black"/>
</g>
<defs>
<clipPath id="clip0_102363_1225">
<rect width="67" height="28" fill="white" transform="translate(0 11)"/>
</clipPath>
</defs>
</svg>
